# xmcd CD database file generated by OrangeCD 5.1
#
# Track frame offsets:
#	150
#	22362
#	49440
#	71107
#	96800
#	115947
#	135707
#	168102
#	190090
#	208072
#	226657
#	243510
#
# Disc length: 3461 seconds
#
# Revision: 6
# Processed by: cddbd v1.5PL3 Copyright (c) Steve Scherf et al.
# Submitted via: OrangeCD 5.1
#
DISCID=ac0d830c
DTITLE=Lovett, Lyle  - Joshua Judges Ruth
DYEAR=1992
DGENRE=Country
TTITLE0=I've Been to Memphis
TTITLE1=Church
TTITLE2=She's Already Made Up Her Mind
TTITLE3=North Dakota
TTITLE4=You've Been So Good up to Now
TTITLE5=All My Love Is Gone
TTITLE6=Since the Last Time
TTITLE7=Baltimore
TTITLE8=Family Reserve
TTITLE9=She's Leaving Me Because She Really Wants To
TTITLE10=Flyswatter/Ice Water Blues (Monte Trenckmann's Blues)
TTITLE11=She Makes Me Feel Good
EXTD=YEAR: 1992 ID3G:   2
EXTT0=
EXTT1=
EXTT2=
EXTT3=
EXTT4=
EXTT5=
EXTT6=
EXTT7=
EXTT8=
EXTT9=
EXTT10=
EXTT11=
PLAYORDER=
